<svg width="20" height="20" viewBox="0 0 20 20" fill="none" xmlns="http://www.w3.org/2000/svg">
<path d="M9.64844 1.27344C9.23438 1.35547 8.78125 1.58594 8.45703 1.87891C8.19141 2.125 7.88672 2.58203 7.76562 2.91406C7.67969 3.16016 7.67578 3.16016 7.41016 3.27734C6.74219 3.57422 5.98828 4.13281 5.57422 4.63672C5.12891 5.18359 4.78906 5.86328 4.61328 6.54688C4.46094 7.15234 4.41016 7.58984 4.375 8.73047C4.30078 11.1406 4.12109 11.7109 3.04688 13.0469C2.57422 13.6328 2.51953 13.75 2.51953 14.1992C2.51953 14.5195 2.53125 14.5781 2.64844 14.8125C2.80469 15.1289 3.07812 15.3906 3.39062 15.5156L3.61328 15.6055H10H16.3867L16.6094 15.5156C16.9219 15.3906 17.1953 15.1289 17.3516 14.8125C17.4688 14.5781 17.4805 14.5195 17.4805 14.1992C17.4805 13.75 17.4258 13.6328 16.9531 13.0469C16.5117 12.4961 16.3398 12.25 16.1641 11.8945C15.8047 11.1797 15.625 10.1328 15.625 8.72656C15.625 5.98438 14.7148 4.30859 12.7031 3.33594L12.3242 3.15234L12.2305 2.91797C12.0859 2.54688 11.8828 2.23438 11.6055 1.95312C11.1641 1.50781 10.6914 1.29297 10.0977 1.26953C9.90625 1.26172 9.70312 1.26562 9.64844 1.27344Z" fill="#8771FF"/>
<path d="M7.27345 16.9219C7.19923 16.9961 7.21486 17.0625 7.39455 17.3359C8.02736 18.3086 9.21876 18.8633 10.3672 18.7187C11.2852 18.6015 12.1133 18.0937 12.6055 17.3359C12.7852 17.0625 12.8008 16.9961 12.7266 16.9219C12.6602 16.8554 7.33986 16.8554 7.27345 16.9219Z" fill="#8771FF"/>
</svg>
