<svg width="24" height="24" viewBox="0 0 24 24" fill="none" xmlns="http://www.w3.org/2000/svg">
<g clip-path="url(#clip0_113_179)">
<path d="M4.00782 0.112482C2.97657 0.384356 2.21251 0.829669 1.49532 1.57967C-0.651557 3.82967 -0.360932 7.46248 2.11876 9.32811C3.71251 10.5328 5.77969 10.725 7.57501 9.84373C9.78751 8.76092 10.9453 6.22498 10.3172 3.83904C9.83438 2.00623 8.38594 0.585919 6.52501 0.112482C6.13594 0.0140448 5.97657 -1.81198e-05 5.25469 -1.81198e-05C4.54688 0.00466919 4.36876 0.0187321 4.00782 0.112482ZM5.93907 3.84373C6.44532 4.09217 6.75001 4.57029 6.75469 5.11873C6.75938 5.51248 6.68907 5.75154 6.50157 6.02811C5.99532 6.76404 4.93594 6.88592 4.25157 6.28592C4.15782 6.20154 4.01251 5.99529 3.92813 5.82654C3.65626 5.27342 3.74532 4.63123 4.15313 4.18123C4.61251 3.66561 5.30157 3.53436 5.93907 3.84373Z" fill="white"/>
<path d="M21.033 0.112509C20.883 0.173447 20.6815 0.28126 20.5877 0.346884C20.4893 0.41251 15.919 4.96407 10.4205 10.4625C-0.24822 21.1406 0.281467 20.5875 0.117404 21.2203C-0.0654081 21.9281 0.178342 22.8094 0.703342 23.3156C1.23772 23.8406 2.07678 24.0656 2.78928 23.8828C3.42678 23.7141 2.89709 24.2203 13.6455 13.4625C25.2237 1.8797 23.9768 3.24376 23.9768 2.15626C23.9768 1.53282 23.9721 1.51876 23.8174 1.20001C23.6112 0.778133 23.2268 0.389072 22.8049 0.182821C22.4955 0.0281334 22.4533 0.023447 21.8908 0.00938416C21.3612 9.53674e-06 21.2815 0.00938416 21.033 0.112509Z" fill="white"/>
<path d="M18.1643 13.5517C16.1112 13.8282 14.3768 15.3188 13.8096 17.297C12.8346 20.7188 15.5065 24.0985 19.0549 23.9392C20.3815 23.8782 21.5627 23.3532 22.5049 22.411C23.1846 21.7313 23.6487 20.9157 23.8877 19.9829C23.9862 19.5985 24.0002 19.4251 24.0002 18.7642C24.0002 17.8876 23.9393 17.4938 23.6909 16.861C23.0534 15.2017 21.6143 13.9829 19.8659 13.6173C19.444 13.5282 18.5815 13.4954 18.1643 13.5517ZM19.5471 17.4188C20.1377 17.7376 20.4424 18.4313 20.2784 19.0735C20.1284 19.6688 19.7627 20.0345 19.1627 20.1845C18.2627 20.4142 17.344 19.7157 17.3393 18.7923C17.3346 18.4032 17.4002 18.1688 17.5784 17.897C18.0002 17.2642 18.8721 17.0485 19.5471 17.4188Z" fill="white"/>
</g>
<defs>
<clipPath id="clip0_113_179">
<rect width="24" height="24" fill="white"/>
</clipPath>
</defs>
</svg>
