<svg width="30" height="30" viewBox="0 0 30 30" fill="none" xmlns="http://www.w3.org/2000/svg">
<g clip-path="url(#clip0_113_156)">
<path d="M14.2971 -0.031033C14.353 -0.0312573 14.4089 -0.0314815 14.4665 -0.0317125C14.5843 -0.0318715 14.7021 -0.0314425 14.8199 -0.0304608C14.9997 -0.0292059 15.1793 -0.0304503 15.3591 -0.0319486C15.4739 -0.0317937 15.5886 -0.0314934 15.7034 -0.031033C15.7836 -0.0317447 15.7836 -0.0317447 15.8654 -0.0324707C16.1916 -0.0276949 16.3838 0.0143136 16.6409 0.23447C16.8473 0.507866 16.9416 0.707244 16.9395 1.04814C16.9394 1.10309 16.9392 1.15804 16.939 1.21466C16.9385 1.27187 16.938 1.32909 16.9375 1.38803C16.9372 1.44593 16.937 1.50382 16.9367 1.56347C16.936 1.70641 16.935 1.84935 16.9338 1.99228C16.9879 2.00089 17.042 2.0095 17.0977 2.01838C19.9486 2.4973 22.8929 4.134 24.6169 6.49668C25.3202 7.48395 25.3202 7.48395 25.3274 7.92856C25.3289 7.98393 25.3304 8.03929 25.332 8.09633C25.3046 8.33165 25.2261 8.48156 25.0402 8.63423C24.9151 8.72272 24.7878 8.80675 24.659 8.88987C24.6112 8.92146 24.5634 8.95305 24.5141 8.9856C24.3608 9.08672 24.2069 9.18699 24.053 9.2872C23.9032 9.3855 23.7535 9.48397 23.6038 9.58248C23.5041 9.64806 23.4043 9.71355 23.3045 9.77894C22.8949 10.0478 22.4905 10.3238 22.0887 10.6042C22.0452 10.6343 22.0018 10.6644 21.957 10.6954C21.9189 10.722 21.8808 10.7485 21.8416 10.7759C21.5901 10.9321 21.3215 10.933 21.0354 10.8985C20.6159 10.6888 20.3145 10.3085 20.0283 9.94638C19.236 8.96769 18.1479 8.19855 16.9338 7.85166C16.9338 9.39853 16.9338 10.9454 16.9338 12.5392C17.2625 12.6165 17.5912 12.6938 17.9299 12.7735C20.5354 13.5152 23.2161 14.5391 24.6203 17.0144C25.4914 18.6418 25.5328 20.7072 25.0088 22.4488C24.3823 24.3776 23.007 25.8553 21.2221 26.7842C21.025 26.8838 20.8258 26.9781 20.6252 27.0704C20.5864 27.0884 20.5475 27.1064 20.5074 27.1249C19.4277 27.6161 18.1297 28.0357 16.9338 28.0079C16.935 28.0427 16.9363 28.0775 16.9375 28.1134C16.9425 28.2736 16.9455 28.4337 16.9485 28.5938C16.9504 28.6486 16.9524 28.7034 16.9544 28.7598C16.9596 29.1266 16.9129 29.4027 16.6994 29.7071C16.4834 29.9078 16.3384 30.0064 16.0458 30.0114C15.9955 30.0123 15.9453 30.0133 15.8935 30.0142C15.6628 30.0169 15.4322 30.0193 15.2015 30.0206C15.08 30.0216 14.9586 30.0232 14.8372 30.0254C14.6618 30.0286 14.4865 30.0299 14.3111 30.0308C14.2572 30.0321 14.2032 30.0334 14.1477 30.0348C13.7699 30.0336 13.5855 29.9579 13.301 29.7071C13.0639 29.3906 13.1052 29.0379 13.1142 28.6598C13.115 28.5971 13.1158 28.5344 13.1166 28.4698C13.1187 28.3158 13.1216 28.1619 13.1252 28.0079C13.0556 27.9999 13.0556 27.9999 12.9846 27.9916C10.284 27.6626 7.30802 25.9742 5.63667 23.8434C5.59422 23.7868 5.55178 23.7303 5.50804 23.672C5.48317 23.6388 5.4583 23.6057 5.43268 23.5716C4.66702 22.5447 4.66702 22.5447 4.65088 21.8972C4.74001 21.513 5.08809 21.2928 5.39978 21.0886C5.44014 21.0615 5.4805 21.0344 5.52209 21.0065C5.65258 20.9192 5.78354 20.8326 5.91454 20.7459C6.00453 20.6859 6.09448 20.6258 6.1844 20.5657C6.31935 20.4754 6.45433 20.3852 6.58945 20.2953C6.85589 20.1178 7.12116 19.9389 7.38487 19.7574C7.44424 19.7166 7.50362 19.6757 7.56479 19.6337C7.67301 19.5591 7.78115 19.4844 7.8892 19.4095C7.9366 19.377 7.984 19.3444 8.03284 19.3109C8.09344 19.269 8.09344 19.269 8.15527 19.2262C8.39107 19.0804 8.63727 19.0668 8.90648 19.1017C9.37624 19.3077 9.67305 19.6763 9.99046 20.0685C10.5282 20.7316 11.1564 21.2458 11.8948 21.6725C11.9301 21.6934 11.9654 21.7143 12.0019 21.7358C12.3711 21.9415 12.6985 22.0172 13.1252 22.1485C13.1252 20.6017 13.1252 19.0548 13.1252 17.461C12.7965 17.3837 12.4678 17.3063 12.1291 17.2267C9.82454 16.6101 7.41639 15.725 5.9182 13.7696C5.88194 13.7233 5.84569 13.6769 5.80833 13.6291C4.73819 12.1911 4.54944 10.3255 4.77988 8.59581C5.09199 6.62326 6.19421 4.98616 7.79077 3.82009C9.06392 2.91227 10.5585 2.38543 12.0852 2.0875C12.1354 2.07766 12.1856 2.06782 12.2374 2.05769C12.5382 2.00286 12.8196 1.98313 13.1252 1.99228C13.124 1.95361 13.1228 1.91493 13.1215 1.87508C13.1166 1.69809 13.1136 1.52112 13.1106 1.34409C13.1086 1.28325 13.1067 1.22241 13.1046 1.15972C13.0998 0.777338 13.1204 0.539066 13.3596 0.23447C13.6655 -0.0267817 13.9131 -0.0344399 14.2971 -0.031033ZM10.7812 8.71843C10.4496 9.08516 10.3477 9.4475 10.3555 9.93425C10.3938 10.2834 10.6667 10.52 10.9241 10.7351C11.4712 11.1165 12.4521 11.6017 13.1252 11.6017C13.1252 10.3062 13.1252 9.01064 13.1252 7.67588C12.2831 7.67588 11.3701 8.15085 10.7812 8.71843ZM16.9338 18.3985C16.9338 19.694 16.9338 20.9895 16.9338 22.3243C17.8701 22.1541 18.7798 21.8647 19.3948 21.0938C19.6327 20.7281 19.6936 20.3524 19.6291 19.922C19.3514 19.3202 18.6936 18.9858 18.1057 18.7501C17.5309 18.5128 17.5309 18.5128 16.9338 18.3985Z" fill="white"/>
</g>
<defs>
<clipPath id="clip0_113_156">
<rect width="30" height="30" fill="white"/>
</clipPath>
</defs>
</svg>
