<svg width="30" height="30" viewBox="0 0 30 30" fill="none" xmlns="http://www.w3.org/2000/svg">
<path d="M5 2.76917V3.5384H5.7641H6.52821L6.55897 3.69737C6.57436 3.78455 6.58974 3.94865 6.58974 4.05635C6.58974 4.34865 6.73333 5.38968 6.85128 5.96917C7.01026 6.73327 7.33333 7.69737 7.66154 8.38455C8.36923 9.85635 9.01538 10.6769 10.7949 12.3333C11.9179 13.3794 12.2513 13.764 12.5026 14.2871C12.6513 14.6102 12.6667 14.6871 12.6667 15.1281C12.6667 15.5692 12.6513 15.6461 12.5026 15.9692C12.2513 16.4922 11.9179 16.8769 10.8051 17.9128C9.00513 19.5897 8.34359 20.4256 7.64103 21.9128C7.09744 23.0717 6.72821 24.5025 6.61538 25.8974C6.6 26.1076 6.57436 26.3794 6.55897 26.4974L6.53333 26.7179H5.7641H5V27.4871V28.2563H15H25V27.4871V26.7179H24.2359C23.3692 26.7179 23.4103 26.7435 23.4103 26.2461C23.4103 25.9128 23.2718 24.8974 23.1487 24.2871C22.9128 23.164 22.3897 21.8204 21.8205 20.8974C21.241 19.9538 20.6667 19.3128 18.6872 17.4102C17.5744 16.3384 17.3333 15.9333 17.3333 15.1281C17.3333 14.1999 17.6 13.8307 19.5846 11.9743C21.2872 10.3846 22.2205 8.99481 22.8154 7.17942C23.1385 6.19481 23.4103 4.74353 23.4103 4.01019C23.4103 3.51276 23.3692 3.5384 24.2359 3.5384H25V2.76917V1.99994H15H5V2.76917ZM21.8872 3.77942C21.7795 5.03583 21.6359 5.82558 21.3744 6.64096L21.2256 7.1025H15H8.77949L8.63077 6.6666C8.37949 5.91276 8.22051 5.04609 8.11282 3.77942L8.08718 3.5384H15H21.9128L21.8872 3.77942ZM14.2308 18.2256V20.9128L14.041 20.9487C13.9333 20.964 12.7282 21.441 11.3641 22.0051C10 22.5692 8.87179 23.0205 8.85641 23.0051C8.84103 22.9897 8.97436 22.6922 9.14872 22.3487C9.69744 21.2563 10.3949 20.3846 11.6205 19.2563C12.6154 18.3384 13.2974 17.6205 13.5846 17.1846C13.8718 16.7538 14.1077 16.1897 14.159 15.8051C14.1744 15.6563 14.2 15.5384 14.2103 15.5384C14.2205 15.5384 14.2308 16.7487 14.2308 18.2256ZM16.041 16.5025C16.3333 17.2204 16.7436 17.7128 18.1026 18.9897C19.6462 20.441 20.2769 21.2102 20.8513 22.3487C21.0256 22.6922 21.159 22.9846 21.1436 22.9999C21.1282 23.0153 20.0205 22.5794 18.6872 22.0256C17.3487 21.4717 16.1487 20.9948 16.0154 20.964L15.7692 20.9076L15.7744 18.2102C15.7795 15.8563 15.7897 15.5538 15.8462 15.8461C15.8821 16.0307 15.9692 16.323 16.041 16.5025Z" fill="white"/>
</svg>
