<svg width="23" height="28" viewBox="0 0 23 28" fill="none" xmlns="http://www.w3.org/2000/svg">
<path d="M12.5971 0.117874C11.9858 0.42729 11.9355 0.655668 11.9283 2.99103V4.91383L11.3746 4.9654C11.0653 4.99487 10.4541 5.09801 10.0154 5.19378C3.0257 6.70402 -1.36806 13.8574 0.386569 20.8856C1.04815 23.5304 2.47918 25.8584 4.54302 27.6338C5.03202 28.0538 5.34123 28.1053 5.75113 27.8254C6.26169 27.4718 6.27608 27.1181 5.82304 26.0426C5.33404 24.9007 5.21899 24.3702 5.21179 23.0957C5.21179 22.1601 5.23337 21.8949 5.37719 21.3645C5.72236 20.0531 6.35518 18.9481 7.29002 18.0125C8.4406 16.8706 9.90758 16.1781 11.5184 16.0234L12.0721 15.9718V17.9241C12.0721 19.81 12.0793 19.8763 12.2375 20.1857C12.3526 20.4068 12.5036 20.5615 12.7193 20.6793C13.1076 20.893 13.3377 20.893 13.7117 20.6793C14.0065 20.5173 22.5927 11.4484 22.8659 11.0138C23.0385 10.7338 23.0457 10.277 22.8803 9.96763C22.7365 9.70242 14.2438 0.611467 13.7908 0.235746C13.5535 0.0442028 13.4384 0 13.1651 0C12.9782 0 12.7265 0.0589371 12.5971 0.117874Z" fill="white"/>
</svg>
