<svg width="10" height="10" viewBox="0 0 10 10" fill="none" xmlns="http://www.w3.org/2000/svg">
<g clip-path="url(#clip0_112_1014)">
<path d="M4.02233 -0.00730582C4.03892 -0.00730169 4.05551 -0.00729756 4.07261 -0.0072933C4.35535 -0.00659428 4.6259 0.0162335 4.90246 0.0781434C4.91841 0.0814888 4.93436 0.0848342 4.95079 0.088281C5.44138 0.192847 5.92084 0.41166 6.32824 0.703143C6.34768 0.716991 6.36711 0.730838 6.38714 0.745105C6.50747 0.833042 6.61912 0.927064 6.72817 1.02861C6.77058 1.06787 6.81383 1.10539 6.85803 1.1426C7.12621 1.37773 7.34577 1.6856 7.5193 1.99579C7.53892 2.03081 7.55902 2.06552 7.57916 2.10024C7.86741 2.60768 8.04737 3.23283 8.05096 3.81746C8.0511 3.83258 8.05123 3.84769 8.05138 3.86327C8.05361 4.18086 8.05575 4.49284 7.9884 4.80471C7.98472 4.82263 7.98105 4.84055 7.97727 4.85901C7.86669 5.38697 7.65565 5.88758 7.34386 6.32814C7.33349 6.3429 7.32312 6.35765 7.31243 6.37285C7.29057 6.40368 7.26843 6.4343 7.24621 6.46486C7.27731 6.54185 7.33049 6.5933 7.38867 6.65043C7.39932 6.66104 7.40997 6.67166 7.42095 6.6826C7.45668 6.71816 7.49254 6.75358 7.52841 6.78901C7.55405 6.81448 7.57968 6.83996 7.6053 6.86544C7.66052 6.92034 7.71579 6.97518 7.77111 7.02997C7.85865 7.1167 7.946 7.20361 8.03333 7.29056C8.28168 7.53778 8.53022 7.78481 8.77905 8.03155C8.91647 8.16781 9.0537 8.30424 9.19075 8.44087C9.27742 8.52725 9.36431 8.61342 9.45135 8.69943C9.50561 8.75314 9.55966 8.80706 9.61366 8.86104C9.63863 8.88593 9.66369 8.91073 9.68884 8.93544C9.9916 9.23312 9.9916 9.23312 10.0124 9.43315C10.0093 9.60535 10.0021 9.72116 9.8811 9.84735C9.7353 9.98367 9.62579 10.0117 9.42699 10.0059C9.15012 9.98312 8.93833 9.68323 8.75236 9.49666C8.7277 9.472 8.70304 9.44735 8.67838 9.4227C8.61201 9.35633 8.5457 9.2899 8.47939 9.22347C8.40988 9.15383 8.34032 9.08426 8.27076 9.01467C8.1393 8.88315 8.00789 8.75158 7.8765 8.62C7.7268 8.47008 7.57705 8.32022 7.4273 8.17037C7.11948 7.86235 6.81173 7.55425 6.50402 7.24611C6.43583 7.27241 6.38192 7.29995 6.32336 7.34377C5.89928 7.64525 5.42381 7.84648 4.91833 7.96389C4.89331 7.96971 4.89331 7.96971 4.86779 7.97565C4.59033 8.03687 4.31877 8.05488 4.03576 8.05422C4.01864 8.05421 4.00152 8.0542 3.98388 8.05419C3.69799 8.05337 3.42403 8.03316 3.14465 7.96877C3.11776 7.9628 3.11776 7.9628 3.09033 7.95671C2.42661 7.80551 1.83528 7.47936 1.32824 7.03127C1.3129 7.01778 1.3129 7.01778 1.29725 7.00401C0.557041 6.34997 0.0889088 5.39722 0.000115135 4.41408C-0.00288935 4.35734 -0.00396124 4.30068 -0.0045388 4.24387C-0.00473097 4.22815 -0.00492314 4.21243 -0.00512113 4.19624C-0.016476 3.02519 0.358758 1.99551 1.17558 1.14885C1.70586 0.611199 2.39561 0.253555 3.12756 0.0830262C3.14407 0.0791442 3.16058 0.0752623 3.17759 0.0712626C3.45814 0.00911531 3.73604 -0.00796882 4.02233 -0.00730582ZM3.37902 1.07424C3.36296 1.07812 3.3469 1.082 3.33036 1.086C2.54692 1.28022 1.86193 1.7633 1.44058 2.45726C1.29357 2.70638 1.18845 2.96004 1.10729 3.23732C1.10255 3.25347 1.09781 3.26962 1.09293 3.28626C1.02541 3.52875 1.00834 3.76823 1.00964 4.01857C1.00968 4.03326 1.00972 4.04794 1.00976 4.06307C1.01075 4.27691 1.01849 4.47994 1.07433 4.68752C1.07821 4.70253 1.08209 4.71754 1.08609 4.733C1.29658 5.53633 1.79123 6.21407 2.50909 6.64022C2.97164 6.90426 3.48557 7.03979 4.01745 7.03737C4.04306 7.03726 4.06868 7.03715 4.09507 7.03704C4.81855 7.02804 5.4985 6.75272 6.03527 6.26955C6.06044 6.24872 6.08566 6.22796 6.11095 6.20729C6.18476 6.14339 6.24674 6.07137 6.30871 5.99611C6.32505 5.9766 6.34139 5.95709 6.35822 5.93698C6.66237 5.567 6.85455 5.14975 6.97277 4.68752C6.97807 4.66695 6.97807 4.66695 6.98347 4.64596C7.15259 3.9503 7.00401 3.17561 6.66027 2.55861C6.65348 2.54618 6.64668 2.53376 6.63968 2.52095C6.53592 2.33276 6.4159 2.16898 6.26965 2.01174C6.25819 1.99932 6.24673 1.9869 6.23492 1.97411C6.04972 1.7755 5.85473 1.60986 5.62511 1.46486C5.6061 1.45275 5.6061 1.45275 5.5867 1.4404C5.12011 1.14825 4.57645 1.00705 4.02844 1.00954C3.98992 1.00971 3.98992 1.00971 3.95062 1.00987C3.75433 1.01232 3.56952 1.02715 3.37902 1.07424Z" fill="#A7A7A7"/>
</g>
<defs>
<clipPath id="clip0_112_1014">
<rect width="10" height="10" fill="white"/>
</clipPath>
</defs>
</svg>
