<svg width="12" height="12" viewBox="0 0 12 12" fill="none" xmlns="http://www.w3.org/2000/svg">
<g clip-path="url(#clip0_153_725)">
<path d="M5.99277 -0.00722886C6.02678 -0.00716477 6.02678 -0.00716477 6.06148 -0.00709939C6.39741 -0.00603467 6.72426 0.00589238 7.05478 0.0704079C7.08632 0.076067 7.08632 0.076067 7.11849 0.0818405C8.25961 0.288325 9.31486 0.837777 10.1485 1.64072C10.1717 1.66294 10.1717 1.66294 10.1954 1.68562C10.4177 1.89994 10.6226 2.11785 10.8048 2.36728C10.8249 2.39426 10.845 2.42124 10.8651 2.44822C11.0066 2.64016 11.1328 2.83944 11.2501 3.04697C11.2595 3.06355 11.2689 3.08012 11.2787 3.0972C11.5837 3.63906 11.7884 4.22849 11.9137 4.83701C11.9171 4.85366 11.9206 4.87031 11.9241 4.88747C11.9941 5.25409 12.0089 5.62057 12.0074 5.99277C12.0074 6.02678 12.0074 6.02678 12.0073 6.06148C12.0062 6.39741 11.9943 6.72426 11.9298 7.05478C11.926 7.07581 11.9222 7.09683 11.9183 7.11849C11.7119 8.25961 11.1624 9.31486 10.3595 10.1485C10.3447 10.164 10.3298 10.1794 10.3146 10.1954C10.1003 10.4177 9.88234 10.6226 9.63291 10.8048C9.60593 10.8249 9.57895 10.845 9.55198 10.8651C9.36003 11.0066 9.16075 11.1328 8.95322 11.2501C8.93664 11.2595 8.92007 11.2689 8.90299 11.2787C8.36113 11.5837 7.7717 11.7884 7.16318 11.9137C7.14653 11.9171 7.12988 11.9206 7.11272 11.9241C6.7461 11.9941 6.37962 12.0089 6.00742 12.0074C5.98475 12.0074 5.96207 12.0073 5.93871 12.0073C5.60279 12.0062 5.27593 11.9943 4.94541 11.9298C4.92438 11.926 4.90336 11.9222 4.8817 11.9183C3.74058 11.7119 2.68533 11.1624 1.85166 10.3595C1.8362 10.3447 1.82075 10.3298 1.80483 10.3146C1.58245 10.1003 1.37761 9.88234 1.19541 9.63291C1.1753 9.60593 1.15519 9.57895 1.13507 9.55198C0.993569 9.36003 0.86741 9.16075 0.750095 8.95322C0.740669 8.93664 0.731243 8.92007 0.721531 8.90299C0.416457 8.36113 0.21177 7.7717 0.0865211 7.16318C0.0813407 7.1382 0.0813407 7.1382 0.0760555 7.11272C0.00606161 6.7461 -0.00868924 6.37962 -0.00722886 6.00742C-0.00718613 5.98475 -0.00714341 5.96207 -0.00709939 5.93871C-0.00603467 5.60279 0.00589238 5.27593 0.0704079 4.94541C0.076067 4.91387 0.076067 4.91387 0.0818405 4.8817C0.288325 3.74058 0.837777 2.68533 1.64072 1.85166C1.65554 1.8362 1.67035 1.82075 1.68562 1.80483C1.89994 1.58245 2.11785 1.37761 2.36728 1.19541C2.39426 1.1753 2.42124 1.15519 2.44822 1.13507C2.64016 0.993569 2.83944 0.86741 3.04697 0.750095C3.06355 0.740669 3.08012 0.731243 3.0972 0.721531C3.63906 0.416457 4.22849 0.21177 4.83701 0.0865211C4.86199 0.0813407 4.86199 0.0813407 4.88747 0.0760555C5.25409 0.00606161 5.62057 -0.00868924 5.99277 -0.00722886ZM4.89853 0.820408C4.87876 0.824672 4.85898 0.828935 4.8386 0.833328C3.67903 1.09063 2.57584 1.77262 1.85166 2.71885C1.84157 2.73195 1.83149 2.74505 1.8211 2.75856C1.6587 2.97075 1.51458 3.18955 1.38291 3.42197C1.37491 3.43585 1.36691 3.44973 1.35867 3.46403C1.06045 3.98413 0.869231 4.56577 0.773533 5.15635C0.767273 5.19383 0.767273 5.19383 0.760887 5.23207C0.722782 5.48348 0.717331 5.73158 0.717869 5.98545C0.717874 6.00709 0.717879 6.02873 0.717884 6.05102C0.718684 6.40188 0.742305 6.73507 0.820408 7.07822C0.824921 7.09901 0.829434 7.11981 0.834084 7.14123C1.02127 7.99413 1.42147 8.7466 1.96885 9.42197C2.01999 9.40287 2.01999 9.40287 2.03453 9.35167C2.04371 9.32099 2.04371 9.32099 2.05307 9.28968C2.06017 9.26677 2.06727 9.24386 2.07459 9.22026C2.08223 9.19546 2.08988 9.17066 2.09775 9.14511C2.22021 8.76374 2.38715 8.40935 2.6251 8.08603C2.65174 8.04942 2.65174 8.04942 2.67893 8.01206C3.15206 7.37339 3.78166 6.89682 4.52353 6.60947C4.52353 6.58627 4.52353 6.56306 4.52353 6.53916C4.47851 6.49615 4.47851 6.49615 4.41953 6.4542C4.2068 6.28948 4.03986 6.10677 3.89072 5.88291C3.87673 5.86203 3.86274 5.84115 3.84833 5.81965C3.50566 5.27244 3.3988 4.58485 3.53183 3.95517C3.62625 3.5503 3.80289 3.17211 4.07822 2.85947C4.09405 2.84029 4.10988 2.8211 4.12619 2.80133C4.5032 2.3576 5.08985 2.04516 5.67197 1.99228C6.39994 1.96097 7.03929 2.07998 7.61728 2.55478C7.63725 2.57089 7.65722 2.58699 7.6778 2.60358C8.08075 2.94562 8.34827 3.42387 8.46103 3.9376C8.46533 3.95706 8.46962 3.97653 8.47405 3.99658C8.6033 4.63608 8.47081 5.30133 8.13501 5.85627C7.95666 6.12396 7.7252 6.38732 7.45322 6.5626C7.49054 6.63723 7.56817 6.65106 7.64218 6.68125C8.61618 7.09459 9.3928 7.87842 9.80069 8.85571C9.86999 9.03369 9.92718 9.2164 9.98447 9.39853C10.0535 9.40655 10.0535 9.40655 10.0866 9.36865C10.0974 9.35464 10.1082 9.34064 10.1192 9.32621C10.1314 9.3104 10.1436 9.2946 10.1562 9.27832C10.1691 9.26095 10.1821 9.24358 10.1954 9.22568C10.2089 9.20778 10.2223 9.18988 10.2362 9.17144C10.4604 8.86843 10.6454 8.54437 10.8048 8.20322C10.8119 8.18819 10.819 8.17317 10.8264 8.15768C11.0025 7.78351 11.1216 7.38943 11.2032 6.98447C11.2068 6.96818 11.2103 6.95189 11.2139 6.93511C11.3502 6.28865 11.3223 5.54084 11.1798 4.89853C11.1755 4.87876 11.1713 4.85898 11.1669 4.8386C10.9096 3.67903 10.2276 2.57584 9.28135 1.85166C9.26824 1.84157 9.25514 1.83149 9.24163 1.8211C9.02944 1.6587 8.81064 1.51458 8.57822 1.38291C8.56434 1.37491 8.55046 1.36691 8.53616 1.35867C8.01607 1.06045 7.43442 0.869222 6.84385 0.773533C6.80634 0.767273 6.80634 0.767273 6.76807 0.760887C6.51715 0.722874 6.26958 0.717331 6.01621 0.717869C5.98382 0.717876 5.98382 0.717876 5.95077 0.717884C5.59239 0.718702 5.24948 0.74254 4.89853 0.820408ZM4.60181 3.32859C4.27019 3.75156 4.13793 4.25558 4.20169 4.78682C4.25967 5.13468 4.42716 5.45984 4.66416 5.71885C4.678 5.73483 4.69183 5.75081 4.70609 5.76728C5.00732 6.09478 5.45997 6.28432 5.89939 6.30982C6.4089 6.32676 6.84888 6.15725 7.23569 5.8288C7.58442 5.50106 7.79833 5.04359 7.81426 4.565C7.82077 4.05834 7.64348 3.58928 7.29566 3.21543C6.91047 2.84544 6.45238 2.67918 5.92613 2.68443C5.4078 2.70009 4.93852 2.93475 4.60181 3.32859ZM5.27353 7.1251C5.24927 7.12963 5.22501 7.13416 5.20002 7.13883C4.57505 7.27306 4.04166 7.62892 3.58603 8.0626C3.5709 8.07649 3.55576 8.09039 3.54017 8.10471C3.03161 8.58587 2.69784 9.32122 2.6164 10.0113C2.61893 10.0809 2.61893 10.0809 2.67014 10.1274C2.69201 10.1426 2.71389 10.1578 2.73642 10.1734C2.74871 10.1821 2.761 10.1907 2.77367 10.1996C2.81751 10.2301 2.86189 10.2596 2.90635 10.2892C2.9238 10.301 2.94126 10.3128 2.95925 10.325C3.8682 10.9405 4.8833 11.2848 5.98545 11.2823C6.00711 11.2823 6.02877 11.2823 6.05109 11.2823C6.40179 11.2813 6.73548 11.2595 7.07822 11.1798C7.11301 11.1719 7.11301 11.1719 7.14851 11.1638C7.43806 11.0966 7.71783 11.0126 7.99228 10.8985C8.00751 10.8923 8.02274 10.8862 8.03844 10.8798C8.40001 10.7323 8.73211 10.5409 9.05196 10.3175C9.0936 10.2893 9.13609 10.2633 9.17917 10.2373C9.316 10.1537 9.316 10.1537 9.39212 10.0198C9.38921 9.9406 9.37274 9.87353 9.35166 9.79697C9.34225 9.75889 9.33285 9.7208 9.32346 9.68271C9.18318 9.139 8.94082 8.65547 8.57822 8.22666C8.55275 8.1962 8.55275 8.1962 8.52677 8.16513C7.97331 7.52269 7.11972 7.1242 6.28135 7.05478C5.93885 7.03504 5.60927 7.05629 5.27353 7.1251Z" fill="black"/>
</g>
<defs>
<clipPath id="clip0_153_725">
<rect width="12" height="12" fill="white"/>
</clipPath>
</defs>
</svg>
