<svg width="12" height="12" viewBox="0 0 12 12" fill="none" xmlns="http://www.w3.org/2000/svg">
<g clip-path="url(#clip0_95_427)">
<path d="M6.84359 3.09375C6.86062 3.09865 6.87764 3.10355 6.89518 3.1086C7.64037 3.33046 8.27589 3.84716 8.64903 4.52784C9.02211 5.22621 9.13008 6.07826 8.90609 6.84375C8.89875 6.86929 8.89875 6.86929 8.89125 6.89534C8.66939 7.64053 8.15269 8.27605 7.47201 8.64918C6.77364 9.02226 5.92158 9.13024 5.15609 8.90625C5.13056 8.89891 5.13056 8.89891 5.1045 8.89141C4.35932 8.66955 3.7238 8.15285 3.35066 7.47217C2.97758 6.7738 2.86961 5.92174 3.09359 5.15625C3.09849 5.13923 3.10339 5.1222 3.10844 5.10466C3.33031 4.35944 3.84703 3.7239 4.52778 3.35082C4.75986 3.22654 4.9966 3.13896 5.24984 3.07032C5.27652 3.06276 5.3032 3.05521 5.33069 3.04743C5.80571 2.93559 6.37689 2.95719 6.84359 3.09375ZM4.47641 4.5C4.45864 4.5175 4.44088 4.53499 4.42257 4.55301C4.03439 4.95793 3.85719 5.49379 3.85998 6.04879C3.87332 6.61759 4.09812 7.12171 4.49984 7.52344C4.51788 7.54148 4.53592 7.55951 4.5545 7.5781C4.96283 7.96532 5.49637 8.14677 6.05338 8.14106C6.62077 8.12348 7.12209 7.9012 7.52328 7.5C7.54132 7.48197 7.55936 7.46393 7.57794 7.44535C7.96516 7.03701 8.14661 6.50347 8.1409 5.94647C8.12331 5.37874 7.90083 4.87824 7.49984 4.47657C7.4736 4.44992 7.4736 4.44992 7.44684 4.42273C7.04192 4.03455 6.50605 3.85735 5.95106 3.86014C5.38192 3.87349 4.87861 4.09848 4.47641 4.5Z" fill="#2B2B2C"/>
<path d="M2.18365 7.95996C2.30441 8.05041 2.37152 8.1858 2.44494 8.31446C2.59697 8.57926 2.79059 8.80358 3.00012 9.02344C3.01574 9.0403 3.03136 9.05716 3.04745 9.07453C3.79906 9.86252 4.98508 10.2261 6.04535 10.264C6.98572 10.2843 7.93335 9.9654 8.64709 9.3501C8.77143 9.24639 8.86904 9.20458 9.03088 9.21414C9.16745 9.2356 9.26239 9.29342 9.35168 9.39844C9.42107 9.51707 9.44881 9.63809 9.422 9.77344C9.36849 9.91942 9.29166 10.0067 9.16858 10.0986C9.15304 10.1106 9.1375 10.1225 9.12149 10.1348C9.07362 10.1712 9.02529 10.2068 8.97668 10.2422C8.95549 10.2577 8.95549 10.2577 8.93387 10.2735C7.87175 11.0408 6.51532 11.294 5.23247 11.0987C3.91945 10.8789 2.64858 10.2093 1.85132 9.12323C1.74796 8.97826 1.65749 8.82703 1.57043 8.67188C1.55932 8.6539 1.5482 8.63592 1.53674 8.6174C1.46396 8.49281 1.45273 8.36843 1.47668 8.22657C1.53478 8.08393 1.62993 7.99039 1.76379 7.91602C1.91301 7.87532 2.04809 7.8828 2.18365 7.95996Z" fill="#2B2B2C"/>
<path d="M8.26193 1.34029C8.72811 1.56703 9.12934 1.85318 9.50968 2.20457C9.52408 2.21782 9.53848 2.23108 9.55331 2.24474C10.4653 3.09917 11.071 4.4437 11.1141 5.69021C11.117 5.81056 11.1171 5.93087 11.1166 6.05125C11.1165 6.08306 11.1165 6.08306 11.1165 6.11552C11.1153 6.42581 11.1064 6.72723 11.039 7.03123C11.032 7.06426 11.032 7.06426 11.0249 7.09797C10.9147 7.60973 10.7163 8.36103 10.3183 8.73191C10.1967 8.80961 10.0789 8.79888 9.93742 8.78904C9.78965 8.74252 9.69698 8.62887 9.62394 8.49607C9.57344 8.29405 9.65709 8.14682 9.75246 7.97594C10.2781 7.02854 10.3296 5.93133 10.0546 4.89841C9.8861 4.31008 9.63769 3.74781 9.23429 3.28123C9.21286 3.25529 9.19147 3.22932 9.17012 3.20332C8.76449 2.7136 8.26301 2.3667 7.68618 2.10438C7.37926 1.96446 7.37926 1.96446 7.31535 1.85007C7.30622 1.83433 7.2971 1.81859 7.2877 1.80237C7.22581 1.67784 7.22699 1.56957 7.26994 1.43845C7.49761 1.01452 7.91691 1.17736 8.26193 1.34029Z" fill="#2B2B2C"/>
<path d="M5.74295 0.841946C5.79599 0.840082 5.84901 0.838895 5.90208 0.837918C5.91863 0.837412 5.93518 0.836906 5.95224 0.836384C6.08993 0.835539 6.197 0.861848 6.30317 0.952725C6.41052 1.08639 6.4608 1.18229 6.44554 1.3594C6.40301 1.48274 6.3548 1.59706 6.23885 1.66599C6.09531 1.73463 5.97334 1.74709 5.81565 1.74759C4.68651 1.77625 3.66105 2.29102 2.87809 3.09131C2.66244 3.32554 2.47677 3.59037 2.32054 3.86721C2.31158 3.88271 2.30262 3.8982 2.29339 3.91416C1.9333 4.54104 1.72974 5.24374 1.7302 5.9678C1.73019 5.99232 1.73017 6.01683 1.73016 6.04209C1.73133 6.21568 1.74442 6.38317 1.77122 6.55456C1.79178 6.7115 1.79126 6.84584 1.71116 6.9844C1.60526 7.10286 1.49984 7.16617 1.34055 7.17923C1.199 7.17443 1.07986 7.13597 0.977273 7.03567C0.692789 6.67079 0.790327 5.84689 0.835733 5.40585C0.999573 4.10074 1.68474 2.84337 2.7198 2.02215C2.74273 2.00454 2.76566 1.98692 2.78929 1.96878C2.80242 1.95866 2.81556 1.94854 2.8291 1.93812C3.04131 1.77572 3.26017 1.63198 3.49241 1.50003C3.50592 1.49215 3.51942 1.48428 3.53333 1.47617C4.1919 1.09331 4.98271 0.871306 5.74295 0.841946Z" fill="#2B2B2C"/>
</g>
<defs>
<clipPath id="clip0_95_427">
<rect width="12" height="12" fill="white"/>
</clipPath>
</defs>
</svg>
