<svg width="10" height="10" viewBox="0 0 10 10" fill="none" xmlns="http://www.w3.org/2000/svg">
<g clip-path="url(#clip0_95_432)">
<path d="M4.46078 5.85283C4.50306 5.85271 4.54534 5.85258 4.58761 5.85244C4.67596 5.85221 4.76431 5.85213 4.85266 5.85216C4.96449 5.85216 5.07631 5.85163 5.18814 5.85096C5.27545 5.85052 5.36276 5.85044 5.45007 5.85046C5.49122 5.85042 5.53238 5.85025 5.57353 5.84994C6.62567 5.84283 7.56505 6.26533 8.31165 6.99587C8.53621 7.22067 8.72605 7.48003 8.8866 7.75393C8.89825 7.77375 8.89825 7.77375 8.91014 7.79397C9.13501 8.1829 9.2713 8.60311 9.35535 9.04299C9.36252 9.07747 9.36252 9.07747 9.36984 9.11265C9.39758 9.26749 9.39952 9.42311 9.40173 9.5801C9.40224 9.60227 9.40276 9.62445 9.40328 9.64729C9.40352 9.76704 9.40298 9.85029 9.31628 9.94143C9.23523 10.0018 9.17521 10.0074 9.07517 10.0074C9.06084 10.0075 9.04652 10.0076 9.03176 10.0077C8.98362 10.008 8.93549 10.0078 8.88735 10.0076C8.85255 10.0077 8.81775 10.0078 8.78294 10.0079C8.68719 10.0082 8.59143 10.0081 8.49568 10.008C8.39246 10.0079 8.28923 10.0081 8.18601 10.0083C7.98375 10.0087 7.78148 10.0087 7.57922 10.0086C7.41486 10.0085 7.2505 10.0085 7.08614 10.0086C7.05108 10.0086 7.05108 10.0086 7.01532 10.0087C6.96785 10.0087 6.92038 10.0087 6.8729 10.0088C6.42747 10.009 5.98204 10.0089 5.53661 10.0087C5.12887 10.0085 4.72114 10.0088 4.3134 10.0092C3.89498 10.0097 3.47657 10.0099 3.05815 10.0098C2.82314 10.0097 2.58813 10.0097 2.35312 10.0101C2.15307 10.0104 1.95302 10.0104 1.75297 10.01C1.65085 10.0099 1.54875 10.0098 1.44664 10.0101C1.35321 10.0104 1.25979 10.0103 1.16636 10.0099C1.13251 10.0098 1.09867 10.0099 1.06483 10.0101C1.01889 10.0104 0.972981 10.0101 0.927046 10.0098C0.888746 10.0098 0.888746 10.0098 0.849671 10.0098C0.750341 9.99563 0.688357 9.95386 0.627849 9.87465C0.603142 9.8193 0.597529 9.78119 0.596878 9.72078C0.596651 9.70071 0.596425 9.68063 0.596191 9.65994C0.596393 9.63843 0.596594 9.61691 0.596802 9.59475C0.596978 9.57223 0.597154 9.54971 0.597336 9.5265C0.607956 8.98515 0.752293 8.45156 0.995972 7.96877C1.00306 7.9546 1.01015 7.94043 1.01745 7.92583C1.1875 7.59091 1.40859 7.28838 1.67153 7.02038C1.6986 6.99272 1.72521 6.96462 1.75182 6.93651C2.4618 6.20061 3.45375 5.85355 4.46078 5.85283Z" fill="#2B2B2C"/>
<path d="M5.64439 0.0585759C5.65999 0.0628812 5.67558 0.0671865 5.69165 0.0716222C6.14408 0.200475 6.51381 0.419879 6.85533 0.74217C6.86973 0.755312 6.88413 0.768454 6.89897 0.781995C7.24329 1.108 7.45323 1.5403 7.57798 1.99217C7.58361 2.01212 7.58361 2.01212 7.58935 2.03248C7.68958 2.40784 7.6832 2.90812 7.57798 3.28123C7.57368 3.29683 7.56937 3.31242 7.56494 3.32849C7.43609 3.78092 7.21668 4.15065 6.89439 4.49217C6.88125 4.50657 6.86811 4.52097 6.85457 4.53581C6.52856 4.88013 6.09626 5.09007 5.64439 5.21483C5.62444 5.22045 5.62444 5.22045 5.60408 5.22619C5.22872 5.32642 4.72845 5.32004 4.35533 5.21483C4.33973 5.21052 4.32414 5.20622 4.30807 5.20178C3.85564 5.07293 3.48591 4.85352 3.14439 4.53123C3.12999 4.51809 3.11559 4.50495 3.10075 4.49141C2.75643 4.1654 2.54649 3.7331 2.42174 3.28123C2.41798 3.26793 2.41423 3.25463 2.41037 3.24092C2.31014 2.86556 2.31652 2.36529 2.42174 1.99217C2.42819 1.96878 2.42819 1.96878 2.43478 1.94492C2.56363 1.49248 2.78304 1.12275 3.10533 0.781232C3.11847 0.766831 3.13161 0.75243 3.14515 0.737592C3.47116 0.393272 3.90346 0.183331 4.35533 0.0585759C4.37528 0.0529489 4.37528 0.0529489 4.39564 0.0472081C4.771 -0.0530156 5.27128 -0.0466416 5.64439 0.0585759Z" fill="#2B2B2C"/>
</g>
<defs>
<clipPath id="clip0_95_432">
<rect width="10" height="10" fill="white"/>
</clipPath>
</defs>
</svg>
